<?xml version="1.0" standalone="no"?>
<svg xmlns:xlink="http://www.w3.org/1999/xlink" id="wave" style="transform:rotate(0deg); transition: 0.3s" viewBox="0 0 1440 210" version="1.1" xmlns="http://www.w3.org/2000/svg"><defs><linearGradient id="sw-gradient-0" x1="0" x2="0" y1="1" y2="0"><stop stop-color="rgba(17, 24, 39, 1)" offset="0%"/><stop stop-color="rgba(17, 24, 39, 1)" offset="100%"/></linearGradient></defs><path style="transform:translate(0, 0px); opacity:1" fill="url(#sw-gradient-0)" d="M0,126L48,112C96,98,192,70,288,66.5C384,63,480,84,576,108.5C672,133,768,161,864,168C960,175,1056,161,1152,136.5C1248,112,1344,77,1440,66.5C1536,56,1632,70,1728,91C1824,112,1920,140,2016,129.5C2112,119,2208,70,2304,59.5C2400,49,2496,77,2592,77C2688,77,2784,49,2880,52.5C2976,56,3072,91,3168,119C3264,147,3360,168,3456,161C3552,154,3648,119,3744,105C3840,91,3936,98,4032,112C4128,126,4224,147,4320,150.5C4416,154,4512,140,4608,129.5C4704,119,4800,112,4896,108.5C4992,105,5088,105,5184,91C5280,77,5376,49,5472,52.5C5568,56,5664,91,5760,87.5C5856,84,5952,42,6048,49C6144,56,6240,112,6336,119C6432,126,6528,84,6624,73.5C6720,63,6816,84,6864,94.5L6912,105L6912,210L6864,210C6816,210,6720,210,6624,210C6528,210,6432,210,6336,210C6240,210,6144,210,6048,210C5952,210,5856,210,5760,210C5664,210,5568,210,5472,210C5376,210,5280,210,5184,210C5088,210,4992,210,4896,210C4800,210,4704,210,4608,210C4512,210,4416,210,4320,210C4224,210,4128,210,4032,210C3936,210,3840,210,3744,210C3648,210,3552,210,3456,210C3360,210,3264,210,3168,210C3072,210,2976,210,2880,210C2784,210,2688,210,2592,210C2496,210,2400,210,2304,210C2208,210,2112,210,2016,210C1920,210,1824,210,1728,210C1632,210,1536,210,1440,210C1344,210,1248,210,1152,210C1056,210,960,210,864,210C768,210,672,210,576,210C480,210,384,210,288,210C192,210,96,210,48,210L0,210Z"/></svg>