<?xml version="1.0" standalone="no"?>
<svg xmlns:xlink="http://www.w3.org/1999/xlink" id="wave" style="transform:rotate(0deg); transition: 0.3s" viewBox="0 0 1440 220" version="1.1" xmlns="http://www.w3.org/2000/svg"><defs><linearGradient id="sw-gradient-0" x1="0" x2="0" y1="1" y2="0"><stop stop-color="rgba(234.879, 234.879, 234.879, 1)" offset="0%"/><stop stop-color="rgba(205, 205, 205, 1)" offset="100%"/></linearGradient></defs><path style="transform:translate(0, 0px); opacity:1" fill="url(#sw-gradient-0)" d="M0,132L30,117.3C60,103,120,73,180,69.7C240,66,300,88,360,113.7C420,139,480,169,540,176C600,183,660,169,720,143C780,117,840,81,900,69.7C960,59,1020,73,1080,95.3C1140,117,1200,147,1260,135.7C1320,125,1380,73,1440,62.3C1500,51,1560,81,1620,80.7C1680,81,1740,51,1800,55C1860,59,1920,95,1980,124.7C2040,154,2100,176,2160,168.7C2220,161,2280,125,2340,110C2400,95,2460,103,2520,117.3C2580,132,2640,154,2700,157.7C2760,161,2820,147,2880,135.7C2940,125,3000,117,3060,113.7C3120,110,3180,110,3240,95.3C3300,81,3360,51,3420,55C3480,59,3540,95,3600,91.7C3660,88,3720,44,3780,51.3C3840,59,3900,117,3960,124.7C4020,132,4080,88,4140,77C4200,66,4260,88,4290,99L4320,110L4320,220L4290,220C4260,220,4200,220,4140,220C4080,220,4020,220,3960,220C3900,220,3840,220,3780,220C3720,220,3660,220,3600,220C3540,220,3480,220,3420,220C3360,220,3300,220,3240,220C3180,220,3120,220,3060,220C3000,220,2940,220,2880,220C2820,220,2760,220,2700,220C2640,220,2580,220,2520,220C2460,220,2400,220,2340,220C2280,220,2220,220,2160,220C2100,220,2040,220,1980,220C1920,220,1860,220,1800,220C1740,220,1680,220,1620,220C1560,220,1500,220,1440,220C1380,220,1320,220,1260,220C1200,220,1140,220,1080,220C1020,220,960,220,900,220C840,220,780,220,720,220C660,220,600,220,540,220C480,220,420,220,360,220C300,220,240,220,180,220C120,220,60,220,30,220L0,220Z"/></svg>