<?xml version="1.0" standalone="no"?>
<svg xmlns:xlink="http://www.w3.org/1999/xlink" id="wave" style="transform:rotate(0deg); transition: 0.3s" viewBox="0 0 1440 130" version="1.1" xmlns="http://www.w3.org/2000/svg"><defs><linearGradient id="sw-gradient-0" x1="0" x2="0" y1="1" y2="0"><stop stop-color="rgba(17, 24, 39, 1)" offset="0%"/><stop stop-color="rgba(17, 24, 39, 1)" offset="100%"/></linearGradient></defs><path style="transform:translate(0, 0px); opacity:1" fill="url(#sw-gradient-0)" d="M0,78L40,69.3C80,61,160,43,240,41.2C320,39,400,52,480,67.2C560,82,640,100,720,104C800,108,880,100,960,84.5C1040,69,1120,48,1200,41.2C1280,35,1360,43,1440,56.3C1520,69,1600,87,1680,80.2C1760,74,1840,43,1920,36.8C2000,30,2080,48,2160,47.7C2240,48,2320,30,2400,32.5C2480,35,2560,56,2640,73.7C2720,91,2800,104,2880,99.7C2960,95,3040,74,3120,65C3200,56,3280,61,3360,69.3C3440,78,3520,91,3600,93.2C3680,95,3760,87,3840,80.2C3920,74,4000,69,4080,67.2C4160,65,4240,65,4320,56.3C4400,48,4480,30,4560,32.5C4640,35,4720,56,4800,54.2C4880,52,4960,26,5040,30.3C5120,35,5200,69,5280,73.7C5360,78,5440,52,5520,45.5C5600,39,5680,52,5720,58.5L5760,65L5760,130L5720,130C5680,130,5600,130,5520,130C5440,130,5360,130,5280,130C5200,130,5120,130,5040,130C4960,130,4880,130,4800,130C4720,130,4640,130,4560,130C4480,130,4400,130,4320,130C4240,130,4160,130,4080,130C4000,130,3920,130,3840,130C3760,130,3680,130,3600,130C3520,130,3440,130,3360,130C3280,130,3200,130,3120,130C3040,130,2960,130,2880,130C2800,130,2720,130,2640,130C2560,130,2480,130,2400,130C2320,130,2240,130,2160,130C2080,130,2000,130,1920,130C1840,130,1760,130,1680,130C1600,130,1520,130,1440,130C1360,130,1280,130,1200,130C1120,130,1040,130,960,130C880,130,800,130,720,130C640,130,560,130,480,130C400,130,320,130,240,130C160,130,80,130,40,130L0,130Z"/></svg>