<?xml version="1.0" standalone="no"?>
<svg xmlns:xlink="http://www.w3.org/1999/xlink" id="wave" style="transform:rotate(0deg); transition: 0.3s" viewBox="0 0 1440 150" version="1.1" xmlns="http://www.w3.org/2000/svg"><defs><linearGradient id="sw-gradient-0" x1="0" x2="0" y1="1" y2="0"><stop stop-color="rgba(234.879, 234.879, 234.879, 1)" offset="0%"/><stop stop-color="rgba(205, 205, 205, 1)" offset="100%"/></linearGradient></defs><path style="transform:translate(0, 0px); opacity:1" fill="url(#sw-gradient-0)" d="M0,90L60,80C120,70,240,50,360,47.5C480,45,600,60,720,77.5C840,95,960,115,1080,120C1200,125,1320,115,1440,97.5C1560,80,1680,55,1800,47.5C1920,40,2040,50,2160,65C2280,80,2400,100,2520,92.5C2640,85,2760,50,2880,42.5C3000,35,3120,55,3240,55C3360,55,3480,35,3600,37.5C3720,40,3840,65,3960,85C4080,105,4200,120,4320,115C4440,110,4560,85,4680,75C4800,65,4920,70,5040,80C5160,90,5280,105,5400,107.5C5520,110,5640,100,5760,92.5C5880,85,6000,80,6120,77.5C6240,75,6360,75,6480,65C6600,55,6720,35,6840,37.5C6960,40,7080,65,7200,62.5C7320,60,7440,30,7560,35C7680,40,7800,80,7920,85C8040,90,8160,60,8280,52.5C8400,45,8520,60,8580,67.5L8640,75L8640,150L8580,150C8520,150,8400,150,8280,150C8160,150,8040,150,7920,150C7800,150,7680,150,7560,150C7440,150,7320,150,7200,150C7080,150,6960,150,6840,150C6720,150,6600,150,6480,150C6360,150,6240,150,6120,150C6000,150,5880,150,5760,150C5640,150,5520,150,5400,150C5280,150,5160,150,5040,150C4920,150,4800,150,4680,150C4560,150,4440,150,4320,150C4200,150,4080,150,3960,150C3840,150,3720,150,3600,150C3480,150,3360,150,3240,150C3120,150,3000,150,2880,150C2760,150,2640,150,2520,150C2400,150,2280,150,2160,150C2040,150,1920,150,1800,150C1680,150,1560,150,1440,150C1320,150,1200,150,1080,150C960,150,840,150,720,150C600,150,480,150,360,150C240,150,120,150,60,150L0,150Z"/></svg>